<svg width="75" height="75" viewBox="0 0 75 75" fill="none" xmlns="http://www.w3.org/2000/svg">
<mask id="mask0_805_9261" style="mask-type:alpha" maskUnits="userSpaceOnUse" x="26" y="12" width="40" height="54">
<path d="M26.0052 35.1776C27.9373 28.1836 35.1639 24.0852 42.1591 26.0172C49.1531 27.9492 53.2518 35.1759 51.3196 42.1705C48.5183 52.311 41.2125 60.59 31.5041 64.6594C43.3101 67.9204 56.226 62.7653 62.3329 51.5467C69.4491 38.475 64.6058 22.1199 51.5347 15.0038C49.7013 13.9992 47.7826 13.2301 45.8402 12.6936C36.0779 16.6695 28.7378 24.9986 26.0052 35.1776Z" fill="url(#paint0_linear_805_9261)"/>
</mask>
<g mask="url(#mask0_805_9261)">
<path d="M67.6544 9.68515H9.67969V67.6601H67.6544V9.68515Z" fill="url(#paint1_linear_805_9261)"/>
</g>
<mask id="mask1_805_9261" style="mask-type:alpha" maskUnits="userSpaceOnUse" x="11" y="11" width="41" height="54">
<path d="M25.7902 62.3447C27.6418 63.354 29.5424 64.1178 31.4859 64.6548L31.5041 64.6598C41.2125 60.5902 48.5183 52.3111 51.3196 42.1709C49.3875 49.1655 42.1603 53.2639 35.1662 51.3317C28.171 49.3993 24.0726 42.1726 26.0052 35.178C28.7371 24.9988 36.0779 16.6696 45.8402 12.6938C34.0383 9.41394 21.1045 14.5642 14.9925 25.8017C7.89448 38.8782 12.7185 55.2285 25.7902 62.3447Z" fill="url(#paint2_linear_805_9261)"/>
</mask>
<g mask="url(#mask1_805_9261)">
<path d="M67.6544 9.68515H9.67969V67.6601H67.6544V9.68515Z" fill="url(#paint3_linear_805_9261)"/>
</g>
<defs>
<linearGradient id="paint0_linear_805_9261" x1="37.8961" y1="16.4145" x2="52.0992" y2="60.5698" gradientUnits="userSpaceOnUse">
<stop stop-color="#E3F1DA"/>
<stop offset="1" stop-color="#CCF3B6"/>
</linearGradient>
<linearGradient id="paint1_linear_805_9261" x1="9.67969" y1="38.6726" x2="68.6657" y2="39.7235" gradientUnits="userSpaceOnUse">
<stop stop-color="#6F86FF"/>
<stop offset="0.333333" stop-color="#B372CE"/>
<stop offset="1" stop-color="#FF7586"/>
</linearGradient>
<linearGradient id="paint2_linear_805_9261" x1="23.3525" y1="21.2169" x2="45.1858" y2="55.1327" gradientUnits="userSpaceOnUse">
<stop stop-color="#D0F1BD"/>
<stop offset="1" stop-color="#90E65D"/>
</linearGradient>
<linearGradient id="paint3_linear_805_9261" x1="9.67969" y1="38.6726" x2="50.219" y2="48.4305" gradientUnits="userSpaceOnUse">
<stop stop-color="#6F86FF"/>
<stop offset="0.9999" stop-color="#A75CC7"/>
<stop offset="1" stop-color="#FF7586"/>
</linearGradient>
</defs>
</svg>
